<?xml version="1.0" encoding="UTF-8" standalone="no"?>
<!DOCTYPE svg PUBLIC "-//W3C//DTD SVG 1.1//EN" "http://www.w3.org/Graphics/SVG/1.1/DTD/svg11.dtd">
<svg width="100%" height="100%" viewBox="0 0 2585 532" version="1.1" xmlns="http://www.w3.org/2000/svg" xmlns:xlink="http://www.w3.org/1999/xlink" xml:space="preserve" xmlns:serif="http://www.serif.com/" style="fill-rule:evenodd;clip-rule:evenodd;stroke-linejoin:round;stroke-miterlimit:2;">
    <g id="アートボード1" transform="matrix(0.936744,0,0,0.928251,14.8274,29.7754)">
        <rect x="-15.829" y="-32.077" width="2758.62" height="572.252" style="fill:none;"/>
        <g transform="matrix(2.13347,0,0,2.15299,-1153.91,-642.736)">
            <g transform="matrix(288,0,0,288,531.708,516.76)">
                <path d="M0.432,-0.761C0.525,-0.761 0.604,-0.747 0.67,-0.719C0.708,-0.704 0.727,-0.689 0.727,-0.674C0.727,-0.648 0.717,-0.635 0.699,-0.635C0.695,-0.635 0.689,-0.638 0.681,-0.643C0.632,-0.675 0.553,-0.691 0.442,-0.691C0.336,-0.691 0.255,-0.64 0.199,-0.539C0.171,-0.487 0.157,-0.415 0.157,-0.32C0.157,-0.129 0.257,-0.034 0.458,-0.034C0.577,-0.034 0.661,-0.057 0.71,-0.102C0.714,-0.105 0.718,-0.106 0.722,-0.106C0.744,-0.106 0.755,-0.096 0.755,-0.074C0.755,-0.065 0.743,-0.052 0.72,-0.035C0.653,0.014 0.564,0.039 0.451,0.039C0.191,0.039 0.061,-0.085 0.061,-0.334C0.061,-0.449 0.084,-0.542 0.131,-0.613C0.196,-0.712 0.296,-0.761 0.432,-0.761Z" style="fill:rgb(255,235,0);fill-rule:nonzero;stroke:rgb(255,234,0);stroke-width:0.01px;"/>
            </g>
            <g transform="matrix(288,0,0,288,727.908,516.76)">
                <path d="M0.166,-0.033L0.166,-0.689L0.08,-0.689C0.065,-0.689 0.058,-0.699 0.058,-0.718C0.058,-0.737 0.065,-0.747 0.08,-0.747L0.338,-0.722C0.352,-0.722 0.356,-0.717 0.356,-0.698C0.356,-0.678 0.347,-0.664 0.335,-0.664L0.256,-0.677L0.256,-0.033L0.335,-0.033C0.349,-0.033 0.355,-0.024 0.355,-0.005C0.355,0.013 0.349,0.022 0.335,0.022L0.08,0.022C0.064,0.022 0.057,0.013 0.057,-0.005C0.057,-0.023 0.064,-0.033 0.08,-0.033L0.166,-0.033Z" style="fill:rgb(255,235,0);fill-rule:nonzero;stroke:rgb(255,234,0);stroke-width:0.01px;"/>
            </g>
            <g transform="matrix(288,0,0,288,814.28,516.76)">
                <path d="M0.328,-0.663L0.043,-0.663C0.029,-0.663 0.022,-0.673 0.022,-0.692C0.022,-0.712 0.03,-0.722 0.047,-0.722L0.687,-0.722C0.701,-0.722 0.708,-0.711 0.708,-0.691C0.708,-0.672 0.7,-0.663 0.684,-0.663L0.417,-0.663L0.417,0.001C0.417,0.022 0.402,0.033 0.373,0.033C0.343,0.033 0.328,0.022 0.328,0L0.328,-0.663Z" style="fill:rgb(255,235,0);fill-rule:nonzero;stroke:rgb(255,234,0);stroke-width:0.01px;"/>
            </g>
            <g transform="matrix(288,0,0,288,996.558,516.76)">
                <path d="M0.179,-0.669L0.179,-0.373C0.212,-0.369 0.249,-0.367 0.292,-0.367L0.306,-0.366L0.343,-0.366C0.474,-0.366 0.539,-0.424 0.539,-0.539C0.539,-0.637 0.48,-0.687 0.362,-0.687C0.311,-0.687 0.255,-0.681 0.194,-0.671L0.179,-0.669ZM0.179,-0.723L0.195,-0.726C0.206,-0.728 0.217,-0.729 0.229,-0.731C0.256,-0.736 0.285,-0.74 0.315,-0.744L0.33,-0.746C0.363,-0.75 0.387,-0.752 0.4,-0.752C0.48,-0.752 0.541,-0.729 0.583,-0.683C0.618,-0.645 0.635,-0.594 0.635,-0.531C0.635,-0.418 0.58,-0.345 0.472,-0.312C0.529,-0.186 0.6,-0.087 0.686,-0.013C0.695,-0.005 0.699,0.002 0.699,0.009C0.699,0.024 0.688,0.032 0.667,0.032C0.661,0.032 0.655,0.03 0.649,0.027C0.516,-0.013 0.434,-0.122 0.404,-0.301C0.401,-0.301 0.397,-0.3 0.394,-0.3L0.36,-0.3C0.302,-0.3 0.241,-0.305 0.179,-0.316L0.179,0C0.179,0.021 0.164,0.032 0.135,0.032C0.105,0.032 0.09,0.021 0.09,-0.001L0.084,-0.643C0.084,-0.662 0.082,-0.73 0.111,-0.73C0.139,-0.73 0.177,-0.742 0.179,-0.723Z" style="fill:rgb(255,235,0);fill-rule:nonzero;stroke:rgb(255,234,0);stroke-width:0.01px;"/>
            </g>
            <g transform="matrix(231.33,0,0,288,1176.86,516.76)">
                <path d="M0.445,-0.758C0.7,-0.758 0.828,-0.622 0.828,-0.351C0.828,-0.088 0.702,0.044 0.45,0.044C0.321,0.044 0.226,0.014 0.164,-0.045C0.099,-0.106 0.067,-0.203 0.067,-0.337C0.067,-0.618 0.193,-0.758 0.445,-0.758ZM0.441,-0.699C0.36,-0.699 0.294,-0.67 0.243,-0.612C0.187,-0.547 0.159,-0.457 0.159,-0.34C0.159,-0.241 0.186,-0.161 0.239,-0.102C0.292,-0.043 0.363,-0.014 0.451,-0.014C0.54,-0.014 0.61,-0.046 0.661,-0.109C0.711,-0.171 0.736,-0.255 0.736,-0.36C0.736,-0.466 0.709,-0.54 0.655,-0.601C0.602,-0.661 0.531,-0.699 0.441,-0.699Z" style="fill:rgb(255,235,0);fill-rule:nonzero;stroke:rgb(255,234,0);stroke-width:0.01px;"/>
            </g>
            <g transform="matrix(288,0,0,288,1362.67,516.76)">
                <path d="M0.201,-0.55L0.209,0.016C0.209,0.031 0.166,0.04 0.143,0.04C0.12,0.04 0.09,0.029 0.09,0.012L0.09,-0.728C0.09,-0.742 0.101,-0.749 0.122,-0.749C0.14,-0.749 0.154,-0.744 0.162,-0.733L0.659,-0.12L0.659,-0.728C0.659,-0.743 0.671,-0.75 0.696,-0.75C0.718,-0.75 0.729,-0.742 0.729,-0.725L0.729,-0.001C0.729,0.021 0.716,0.032 0.69,0.032C0.674,0.032 0.663,0.028 0.656,0.02L0.201,-0.55Z" style="fill:rgb(255,235,0);fill-rule:nonzero;stroke:rgb(255,234,0);stroke-width:0.01px;"/>
            </g>
            <g transform="matrix(288,0,0,288,1570.62,516.76)">
                <path d="M0.445,-0.758C0.7,-0.758 0.828,-0.622 0.828,-0.351C0.828,-0.088 0.702,0.044 0.45,0.044C0.321,0.044 0.226,0.014 0.164,-0.045C0.099,-0.106 0.067,-0.203 0.067,-0.337C0.067,-0.618 0.193,-0.758 0.445,-0.758ZM0.441,-0.699C0.36,-0.699 0.294,-0.67 0.243,-0.612C0.187,-0.547 0.159,-0.457 0.159,-0.34C0.159,-0.241 0.186,-0.161 0.239,-0.102C0.292,-0.043 0.363,-0.014 0.451,-0.014C0.54,-0.014 0.61,-0.046 0.661,-0.109C0.711,-0.171 0.736,-0.255 0.736,-0.36C0.736,-0.466 0.709,-0.549 0.655,-0.61C0.603,-0.669 0.531,-0.699 0.441,-0.699Z" style="fill:rgb(255,235,0);fill-rule:nonzero;stroke:rgb(255,234,0);stroke-width:0.01px;"/>
            </g>
        </g>
    </g>
</svg>
